<svg width="16" height="16" viewBox="0 0 16 16" fill="none" xmlns="http://www.w3.org/2000/svg">
<path fill-rule="evenodd" clip-rule="evenodd" d="M5 0H11C13.761 0 16 2.239 16 5V11C16 13.761 13.761 16 11 16H5C2.239 16 0 13.761 0 11V5C0 2.239 2.239 0 5 0ZM11.5 15C13.43 15 15 13.43 15 11.5V5.5C15 3.57 13.43 2 11.5 2H5.5C3.57 2 2 3.57 2 5.5V11.5C2 13.43 3.57 15 5.5 15H11.5Z" fill="white"/>
<path fill-rule="evenodd" clip-rule="evenodd" d="M4 8C4 5.791 5.791 4 8 4C10.209 4 12 5.791 12 8C12 10.209 10.209 12 8 12C5.791 12 4 10.209 4 8ZM6 8.5C6 9.878 7.122 11 8.5 11C9.878 11 11 9.878 11 8.5C11 7.121 9.878 6 8.5 6C7.122 6 6 7.121 6 8.5Z" fill="white"/>
<circle cx="12.5" cy="3.5" r="0.5" fill="white"/>
</svg>
