<svg width="19" height="19" viewBox="0 0 19 19" fill="none" xmlns="http://www.w3.org/2000/svg">
<path d="M18.9353 8.47429C18.9262 8.39645 18.8886 8.32475 18.8295 8.27302C18.8003 8.24475 18.7656 8.22253 18.7277 8.20772C18.6897 8.19291 18.6492 8.18572 18.6084 8.18666H12.6876L16.8879 3.98787C16.9427 3.93028 16.9766 3.85605 16.984 3.777C16.9868 3.73697 16.9815 3.69682 16.9683 3.65893C16.955 3.62103 16.9343 3.58621 16.9072 3.55653C16.4795 3.01823 15.9927 2.52945 15.4558 2.0994C15.3941 2.04749 15.3154 2.02022 15.2347 2.02275C15.1511 2.03146 15.0729 2.0687 15.0136 2.12819L10.8229 6.31738V0.38354C10.8219 0.302003 10.7911 0.223526 10.7364 0.162958C10.6845 0.104086 10.6126 0.0665239 10.5346 0.0575227C9.85107 -0.0191742 9.1611 -0.0191742 8.47762 0.0575227C8.39956 0.0665239 8.32761 0.104086 8.27575 0.162958C8.22101 0.223526 8.19029 0.302003 8.18928 0.38354V6.31738L3.99855 2.11859C3.94081 2.06394 3.86632 2.0302 3.78706 2.02275C3.70327 2.01874 3.621 2.04605 3.55638 2.0994C3.01671 2.52276 2.52947 3.00869 2.10499 3.54694C2.05569 3.61363 2.02876 3.69414 2.02808 3.777C2.03555 3.85605 2.06943 3.93028 2.12424 3.98787L6.32459 8.18666H0.384503C0.304117 8.18583 0.225913 8.21303 0.163392 8.26342C0.106262 8.32051 0.0691871 8.39446 0.0576758 8.47429C-0.0192253 9.15596 -0.0192253 9.8441 0.0576758 10.5258C0.0669995 10.6063 0.104415 10.6809 0.163392 10.7366C0.192672 10.7649 0.227343 10.7871 0.265294 10.8019C0.303245 10.8167 0.34376 10.8238 0.384503 10.8229H6.31496L2.11461 15.0121C2.05782 15.0722 2.02385 15.1502 2.01852 15.2327C2.02055 15.3123 2.04739 15.3894 2.09537 15.4531C2.30741 15.722 2.53531 15.978 2.77783 16.22C3.02774 16.4596 3.27763 16.6898 3.54676 16.9103C3.61232 16.961 3.69479 16.985 3.77744 16.9773C3.85778 16.9741 3.93371 16.9398 3.98893 16.8815L8.17966 12.6923V18.6165C8.17871 18.6572 8.18587 18.6976 8.20072 18.7354C8.21557 18.7733 8.23784 18.8079 8.26619 18.8371C8.31805 18.896 8.38994 18.9335 8.468 18.9425C8.80948 18.9808 9.15284 19 9.49647 19C9.8401 19.0002 10.1835 18.9811 10.5249 18.9425C10.603 18.9335 10.6749 18.896 10.7268 18.8371C10.7552 18.8079 10.7774 18.7733 10.7922 18.7354C10.8071 18.6976 10.8142 18.6572 10.8133 18.6165V12.6923L15.0136 16.8911C15.0705 16.947 15.1455 16.981 15.2251 16.9869C15.3052 16.9862 15.3829 16.9593 15.4462 16.9103C15.9829 16.4868 16.4669 16.0008 16.8879 15.4627C16.915 15.433 16.9358 15.3982 16.949 15.3603C16.9622 15.3224 16.9676 15.2823 16.9649 15.2423C16.9574 15.1632 16.9235 15.0889 16.8687 15.0313L12.6876 10.8709H18.6181C18.6573 10.8711 18.6961 10.8635 18.7324 10.8487C18.7687 10.8339 18.8017 10.8122 18.8295 10.7846C18.8617 10.7609 18.8886 10.7307 18.9084 10.696C18.9283 10.6614 18.9407 10.6229 18.9449 10.5832C19.0215 9.88212 19.0182 9.17467 18.9353 8.47429Z" fill="#187BF5"/>
</svg>
