<svg width="12" height="12" viewBox="0 0 12 12" fill="none" xmlns="http://www.w3.org/2000/svg">
<path d="M11.9591 5.35219C11.9534 5.30302 11.9296 5.25773 11.8923 5.22507C11.8739 5.20721 11.852 5.19318 11.828 5.18383C11.8041 5.17447 11.7784 5.16993 11.7527 5.17052H8.01322L10.6661 2.51865C10.7007 2.48228 10.722 2.4354 10.7268 2.38547C10.7285 2.36019 10.7251 2.33483 10.7168 2.3109C10.7084 2.28697 10.6953 2.26497 10.6782 2.24623C10.4081 1.90625 10.1006 1.59755 9.76155 1.32594C9.7226 1.29315 9.67288 1.27593 9.62194 1.27753C9.5691 1.28303 9.51976 1.30655 9.48229 1.34412L6.83552 3.98993V0.242236C6.83488 0.190739 6.81544 0.141175 6.78086 0.102921C6.74811 0.0657387 6.7027 0.0420151 6.65341 0.0363301C6.22173 -0.01211 5.78596 -0.01211 5.35429 0.0363301C5.30499 0.0420151 5.25955 0.0657387 5.22679 0.102921C5.19222 0.141175 5.17282 0.190739 5.17218 0.242236V3.98993L2.5254 1.33806C2.48893 1.30354 2.44188 1.28223 2.39183 1.27753C2.3389 1.27499 2.28695 1.29224 2.24614 1.32594C1.90529 1.59332 1.59756 1.90023 1.32947 2.24017C1.29833 2.28229 1.28132 2.33314 1.28089 2.38547C1.28561 2.4354 1.30701 2.48228 1.34162 2.51865L3.99448 5.17052H0.242844C0.192074 5.17 0.142682 5.18717 0.103195 5.21901C0.0671126 5.25506 0.0436971 5.30176 0.0364268 5.35219C-0.0121423 5.78271 -0.0121423 6.21733 0.0364268 6.64785C0.0423155 6.6987 0.0659462 6.74583 0.103195 6.78104C0.121688 6.79889 0.143585 6.81292 0.167554 6.82228C0.191523 6.83163 0.217112 6.8361 0.242844 6.83551H3.9884L1.33555 9.48131C1.29967 9.51927 1.27822 9.56858 1.27485 9.62063C1.27614 9.67095 1.29309 9.71961 1.32339 9.75987C1.45731 9.9297 1.60125 10.0914 1.75442 10.2442C1.91226 10.3955 2.07008 10.5409 2.24006 10.6802C2.28147 10.7122 2.33355 10.7274 2.38575 10.7225C2.43649 10.7205 2.48445 10.6988 2.51932 10.662L5.1661 8.01617V11.7578C5.1655 11.7835 5.17002 11.809 5.1794 11.8329C5.18878 11.8568 5.20285 11.8787 5.22075 11.8971C5.25351 11.9343 5.29891 11.958 5.34821 11.9637C5.56388 11.9879 5.78074 12 5.99777 12C6.2148 12.0001 6.43167 11.9881 6.64733 11.9637C6.69663 11.958 6.74207 11.9343 6.77482 11.8971C6.79273 11.8787 6.80676 11.8568 6.81614 11.8329C6.82552 11.809 6.83004 11.7835 6.82944 11.7578V8.01617L9.48229 10.668C9.51819 10.7034 9.56555 10.7248 9.61587 10.7286C9.66647 10.7281 9.71552 10.7111 9.75548 10.6802C10.0945 10.4127 10.4002 10.1058 10.6661 9.76593C10.6832 9.74719 10.6963 9.72519 10.7046 9.70126C10.713 9.67733 10.7164 9.65197 10.7146 9.62669C10.7099 9.57676 10.6885 9.52981 10.6539 9.49343L8.01322 6.86581H11.7588C11.7835 6.86593 11.8081 6.86119 11.831 6.85184C11.8539 6.84249 11.8748 6.82874 11.8923 6.81134C11.9127 6.79635 11.9296 6.77728 11.9422 6.75539C11.9547 6.7335 11.9626 6.70922 11.9652 6.68414C12.0136 6.24134 12.0115 5.79453 11.9591 5.35219Z" fill="#187BF5"/>
</svg>
